<?xml version="1.0" encoding="UTF-8"?>
<svg id="Calque_2" data-name="Calque 2" xmlns="http://www.w3.org/2000/svg" viewBox="0 0 502.4 502.4">
  <defs>
    <style>
      .cls-1 {
        fill: #d84793;
      }

      .cls-1, .cls-2 {
        stroke-width: 0px;
      }

      .cls-2 {
        fill: #581d3c;
      }
    </style>
  </defs>
  <g id="Calque_3" data-name="Calque 3">
    <g>
      <circle class="cls-1" cx="251.2" cy="251.2" r="251.2"/>
      <path class="cls-2" d="M397.04,374.04H105.37c-17.62,0-28.64-19.08-19.83-34.34L231.38,87.11c8.81-15.26,30.84-15.26,39.65,0l145.83,252.59c8.81,15.26-2.2,34.34-19.82,34.34Z"/>
      <path class="cls-1" d="M251.46,330.38c-7.14,0-13.04-2.29-17.71-6.88-4.68-4.59-7.01-10.02-7.01-16.31s2.33-11.85,7.01-16.18c4.67-4.33,10.58-6.5,17.71-6.5s12.96,2.17,17.46,6.5c4.5,4.33,6.75,9.73,6.75,16.18s-2.25,11.72-6.75,16.31c-4.5,4.59-10.32,6.88-17.46,6.88ZM235.4,266.15l-7.65-116.22h47.15l-7.9,116.22h-31.6Z"/>
    </g>
  </g>
</svg>