<?xml version="1.0" encoding="UTF-8"?>
<svg id="Calque_2" data-name="Calque 2" xmlns="http://www.w3.org/2000/svg" viewBox="0 0 599.51 517.21">
  <defs>
    <style>
      .cls-1 {
        fill: #fff;
        stroke-width: 0px;
      }

      .cls-2 {
        fill: none;
        stroke: #581d3c;
        stroke-width: 43.7px;
      }
    </style>
  </defs>
  <g id="Calque_3" data-name="Calque 3">
    <g>
      <path class="cls-1" d="M577.66,177.62c0,31.9-9.83,61.18-26.44,85.43-1.31,2.4-3.06,4.59-4.59,6.77,0,0-.22.22-.22.44-1.75,2.4-3.28,4.59-5.02,6.99-51.35,71.44-126.94,148.35-240.55,214.33-86.09-55.71-167.8-125.41-238.37-213.24-1.74-2.19-3.49-4.37-5.24-6.55-.44-.44-.66-.87-.87-1.09-1.74-2.4-3.49-4.59-5.24-6.77-.22-.22-.66-.65-.66-1.09-18.13-24.91-28.62-55.49-28.62-88.48C21.85,90.01,90.23,21.85,174.35,21.85c52.65,0,99.19,26.87,126.72,67.73,27.52-38.89,72.97-64.23,124.1-64.23,84.34,0,152.5,68.17,152.5,152.28Z"/>
      <path class="cls-2" d="M577.66,177.62c0,31.9-9.83,61.18-26.44,85.43-1.31,2.4-3.06,4.59-4.59,6.77,0,0-.22.22-.22.44-1.75,2.4-3.28,4.59-5.02,6.99-51.35,71.44-126.94,148.35-240.55,214.33-86.09-55.71-167.8-125.41-238.37-213.24-1.74-2.19-3.49-4.37-5.24-6.55-.44-.44-.66-.87-.87-1.09-1.74-2.4-3.49-4.59-5.24-6.77-.22-.22-.66-.65-.66-1.09-18.13-24.91-28.62-55.49-28.62-88.48C21.85,90.01,90.23,21.85,174.35,21.85c52.65,0,99.19,26.87,126.72,67.73,27.52-38.89,72.97-64.23,124.1-64.23,84.34,0,152.5,68.17,152.5,152.28Z"/>
    </g>
  </g>
</svg>