<?xml version="1.0" encoding="UTF-8"?>
<svg id="Calque_2" data-name="Calque 2" xmlns="http://www.w3.org/2000/svg" viewBox="0 0 426.77 380.42">
  <defs>
    <style>
      .cls-1 {
        stroke: #d888b2;
      }

      .cls-1, .cls-2 {
        stroke-width: 23.53px;
      }

      .cls-1, .cls-2, .cls-3, .cls-4 {
        fill: none;
      }

      .cls-2 {
        stroke: #d84793;
      }

      .cls-5 {
        fill: #fff;
        stroke-width: 0px;
      }

      .cls-3 {
        stroke: #8b2e5f;
      }

      .cls-3, .cls-4 {
        stroke-width: 23.53px;
      }

      .cls-4 {
        stroke: #581d3c;
      }
    </style>
  </defs>
  <g id="Calque_1-2" data-name="Calque 1">
    <g>
      <path class="cls-5" d="M363.02,147.63c0,17.18-5.29,32.94-14.23,46-.71,1.29-1.65,2.47-2.47,3.65,0,0-.12.12-.12.24-.94,1.29-1.77,2.47-2.71,3.76-27.65,38.47-68.35,79.88-129.52,115.4-46.35-30-90.35-67.52-128.34-114.81-.94-1.18-1.88-2.35-2.82-3.53-.24-.24-.35-.47-.47-.59-.94-1.29-1.88-2.47-2.82-3.65-.12-.12-.35-.35-.35-.59-9.76-13.41-15.41-29.88-15.41-47.64,0-45.41,36.82-82.11,82.11-82.11,28.35,0,53.41,14.47,68.23,36.47,14.82-20.94,39.29-34.59,66.82-34.59,45.41,0,82.11,36.7,82.11,81.99Z"/>
      <path class="cls-1" d="M363.02,147.63c0,17.18-5.29,32.94-14.23,46-.71,1.29-1.65,2.47-2.47,3.65,0,0-.12.12-.12.24-.94,1.29-1.77,2.47-2.71,3.76-27.65,38.47-68.35,79.88-129.52,115.4-46.35-30-90.35-67.52-128.34-114.81-.94-1.18-1.88-2.35-2.82-3.53-.24-.24-.35-.47-.47-.59-.94-1.29-1.88-2.47-2.82-3.65-.12-.12-.35-.35-.35-.59-9.76-13.41-15.41-29.88-15.41-47.64,0-45.41,36.82-82.11,82.11-82.11,28.35,0,53.41,14.47,68.23,36.47,14.82-20.94,39.29-34.59,66.82-34.59,45.41,0,82.11,36.7,82.11,81.99Z"/>
      <path class="cls-2" d="M213.97,340.2c-4.45,0-8.9-1.26-12.78-3.78-52.01-33.66-97.06-73.98-133.9-119.83-.02-.02-1.68-2.1-2.5-3.12-.47-.55-.84-1.03-1.11-1.39-.13-.17-.26-.34-.39-.52-.52-.71-1.1-1.45-1.77-2.29-.94-1.1-1.78-2.26-2.5-3.48-12.31-17.57-18.8-38.24-18.8-59.93,0-58.25,47.39-105.64,105.64-105.64,25.49,0,49.74,9.2,68.68,25.43,18.56-15.04,41.96-23.55,66.37-23.55,28.24,0,54.77,10.97,74.71,30.9,19.94,19.92,30.93,46.43,30.93,74.62,0,20.94-6.16,41.14-17.81,58.5-.98,1.65-1.94,2.98-2.64,3.93-.28.44-.57.87-.88,1.29-.45.62-.88,1.22-1.3,1.81-.44.61-.88,1.23-1.35,1.87-34.84,48.46-80.86,89.5-136.78,121.98-3.66,2.13-7.74,3.18-11.82,3.18Z"/>
      <path class="cls-3" d="M213.97,355.66c-7.38,0-14.75-2.09-21.19-6.26-53.4-34.56-99.68-75.98-137.55-123.13-.03-.03-1.6-2.01-2.37-2.96-.5-.6-.99-1.21-1.47-1.85-.21-.27-.42-.55-.62-.83-.29-.4-.69-.91-1.17-1.51-1.34-1.58-2.55-3.25-3.62-4.99-13.9-20.07-21.24-43.61-21.24-68.28,0-66.78,54.33-121.1,121.1-121.1,25.01,0,48.96,7.71,68.95,21.59,19.41-12.68,42.33-19.71,66.09-19.71,32.36,0,62.78,12.58,85.64,35.42,22.87,22.84,35.46,53.23,35.46,85.56,0,23.89-6.99,46.95-20.22,66.79-1.11,1.84-2.16,3.31-2.92,4.37-.37.57-.75,1.12-1.15,1.67-.43.59-.82,1.14-1.22,1.7-.45.64-.91,1.27-1.39,1.94-36.12,50.23-83.74,92.72-141.55,126.3-6.06,3.52-12.83,5.27-19.58,5.27Z"/>
      <path class="cls-4" d="M213.98,368.66c-9.84,0-19.67-2.79-28.25-8.34-54.56-35.31-101.87-77.67-140.62-125.9-.04-.05-1.55-1.94-2.27-2.84-.61-.73-1.21-1.49-1.8-2.26-.26-.34-.52-.69-.78-1.04-.12-.17-.38-.5-.68-.87-1.67-1.98-3.18-4.06-4.52-6.22-15.25-22.17-23.3-48.13-23.3-75.32C11.76,71.92,71.92,11.76,145.86,11.76c24.76,0,48.58,6.83,69.17,19.25,19.84-11.22,42.49-17.37,65.87-17.37,35.83,0,69.51,13.93,94.83,39.22,25.33,25.3,39.27,58.95,39.27,94.76,0,26.38-7.69,51.85-22.26,73.78-1.22,1.99-2.35,3.6-3.17,4.74-.44.66-.89,1.31-1.35,1.95-.4.55-.78,1.08-1.15,1.61-.46.65-.93,1.3-1.42,1.98-37.19,51.72-86.17,95.44-145.57,129.94-8.08,4.7-17.1,7.03-26.11,7.03Z"/>
    </g>
  </g>
</svg>