<?xml version="1.0" encoding="UTF-8"?>
<svg id="Calque_2" data-name="Calque 2" xmlns="http://www.w3.org/2000/svg" viewBox="0 0 502.4 502.4">
  <defs>
    <style>
      .cls-1 {
        fill: #d84793;
      }

      .cls-1, .cls-2 {
        stroke-width: 0px;
      }

      .cls-2 {
        fill: #581d3c;
      }
    </style>
  </defs>
  <g id="Calque_3" data-name="Calque 3">
    <g>
      <circle class="cls-1" cx="251.2" cy="251.2" r="251.2"/>
      <circle class="cls-1" cx="251.2" cy="251.2" r="179.56"/>
      <g>
        <circle class="cls-2" cx="251.2" cy="251.2" r="145.18"/>
        <path class="cls-1" d="M296.39,339.41h-89.42v-21.22c0-6.96,5.64-12.59,12.59-12.59h64.24c6.96,0,12.59,5.64,12.59,12.59v21.22Z"/>
        <path class="cls-1" d="M220.79,257.46l-74.85-48.94,11.61-17.76c3.81-5.82,11.61-7.46,17.43-3.65l53.76,35.15c5.82,3.81,7.46,11.61,3.65,17.43l-11.61,17.76Z"/>
        <path class="cls-1" d="M280.07,253.95l69.48-45.43-11.61-17.76c-3.81-5.82-11.61-7.46-17.43-3.65l-53.76,35.15c-5.82,3.81-7.46,11.61-3.65,17.43l8.11,12.4c1.94,2.96,5.91,3.79,8.87,1.86Z"/>
      </g>
    </g>
  </g>
</svg>